<svg id="Layer_1" data-name="Layer 1" xmlns="http://www.w3.org/2000/svg" viewBox="0 0 100 100"><defs><style>.cls-1{fill:#ad3d34;}</style></defs><path class="cls-1" d="M1.41,82q0-4.78,4.1-4.78a5,5,0,0,1,3.35,1.19,3.9,3.9,0,0,1,1.43,3.13,5.06,5.06,0,0,1-.57,2.28,4.45,4.45,0,0,0-.57,1.59,3.84,3.84,0,0,0,1.76,3.3c1.18.84,3,1.25,5.52,1.25q9.11,0,17.53-7.28,6.36-5.46,13-16.27,2.39-4,9.56-17.19A99,99,0,0,1,68.32,31.57,71.11,71.11,0,0,1,84.25,17.11a41.44,41.44,0,0,0-9.33-2.95,52,52,0,0,0-9.79-.92c-2.8,0-5.31.08-7.51.23a44.82,44.82,0,0,0-6.37.91,18.05,18.05,0,0,1,3.47,6.38,25.49,25.49,0,0,1,1.08,7.51q0,12.63-10.41,23.84t-23,11.2a12.53,12.53,0,0,1-8.76-3.08Q9.82,56.8,9.83,50.74q0-12.12,13.54-23.89,12.3-10.63,24.92-13.38A20.78,20.78,0,0,0,42.21,11a28.73,28.73,0,0,0-7.12-.91q-13.55,0-23.44,10.24A41,41,0,0,0,4.82,29L1,36.46a.38.38,0,0,1-.35-.23,1.06,1.06,0,0,1-.11-.45q0-2.28,3.64-8.2a41.69,41.69,0,0,1,11.38-12.4,33.11,33.11,0,0,1,19.8-6.49A26.56,26.56,0,0,1,43.63,10a18.77,18.77,0,0,1,6.48,3.47,43.34,43.34,0,0,1,6.77-1.19,78.63,78.63,0,0,1,8.25-.4,59.53,59.53,0,0,1,11.38,1,44.15,44.15,0,0,1,9.33,2.85q3.07-1.93,4.22-2.62a7.11,7.11,0,0,1,2.84-1.25l.46.45c0,.38-.61.91-1.83,1.6C89.41,15.14,88,16,87.44,16.43a23.77,23.77,0,0,1,8.76,8,19.83,19.83,0,0,1,3.3,11.06q0,8.4-7.45,14.53t-16,6.12a12.54,12.54,0,0,1-5.92-1.72C68,53.27,67,52.44,67,51.92c.3-.29.52-.44.68-.44a18.17,18.17,0,0,0,3.41,2,8.93,8.93,0,0,0,3.64.87q8,0,13.54-7.6a25.1,25.1,0,0,0,5.13-15.31,16.18,16.18,0,0,0-1.88-7.94,14.84,14.84,0,0,0-5.86-5.67,40.49,40.49,0,0,0-8.88,9.33q-2.85,4-8.31,13.77-4.67,8.41-9.21,16.72A84.62,84.62,0,0,1,39.76,81.07Q27.13,91.3,14.84,91.31a18,18,0,0,1-9.33-2.17A7.92,7.92,0,0,1,1.41,82ZM11.2,50.34q0,5.23,2.61,8.19a9.07,9.07,0,0,0,7.17,3q10.93,0,21.17-12.06T52.39,25.31a27.6,27.6,0,0,0-.57-6.89,9.22,9.22,0,0,0-2.16-3.58Q35.55,17.57,23.37,28.72T11.2,50.34Z"/></svg>